<svg width="25" height="24" viewBox="0 0 25 24" fill="none" xmlns="http://www.w3.org/2000/svg">
<rect x="0.318848" width="24" height="24" rx="12" fill="#7DE310"/>
<path fill-rule="evenodd" clip-rule="evenodd" d="M8.89959 12.5332H12.3189C12.5083 12.5332 12.6889 12.6138 12.8149 12.7545C12.9409 12.8952 13.0016 13.0832 12.9816 13.2712L12.6823 16.0378L15.7383 11.4665H12.3189C12.1296 11.4665 11.9489 11.3858 11.8229 11.2452C11.6963 11.1045 11.6356 10.9165 11.6563 10.7285L11.9556 7.96251L8.89959 12.5332ZM11.7263 19.3332C11.6503 19.3332 11.5736 19.3205 11.4983 19.2932C11.2103 19.1878 11.0303 18.8998 11.0636 18.5952L11.5763 13.8665H7.65225C7.40625 13.8665 7.18025 13.7312 7.06425 13.5145C6.94825 13.2972 6.96159 13.0338 7.09825 12.8292L12.3576 4.96318C12.5276 4.70718 12.8503 4.60185 13.1389 4.70718C13.4276 4.81185 13.6076 5.10051 13.5743 5.40518L13.0616 10.1332H16.9856C17.2316 10.1332 17.4576 10.2692 17.5736 10.4858C17.6896 10.7032 17.6763 10.9658 17.5396 11.1705L12.2803 19.0372C12.1543 19.2265 11.9436 19.3332 11.7263 19.3332Z" fill="white"/>
</svg>
