<svg width="25" height="24" viewBox="0 0 25 24" fill="none" xmlns="http://www.w3.org/2000/svg">
<rect x="0.212585" width="24" height="24" rx="12" fill="#F5CE00"/>
<path fill-rule="evenodd" clip-rule="evenodd" d="M9.20933 10.3443C7.85466 11.8103 7.88333 14.1343 9.29533 15.5737C9.98466 16.2783 10.9007 16.667 11.8767 16.6677H11.88C12.858 16.6677 13.7773 16.279 14.47 15.5737C15.9073 14.1083 15.9047 11.725 14.464 10.2617L12.4733 8.22767C12.272 9.88233 11.6513 11.3343 10.546 11.3343C10.2073 11.3343 9.65533 11.1837 9.20933 10.3443ZM11.88 18.001H11.8753C10.538 17.9997 9.28333 17.4697 8.34266 16.5063C6.4 14.5263 6.39733 11.3043 8.33666 9.32767L8.992 8.665C9.16133 8.49567 9.40733 8.43033 9.64 8.491C9.87133 8.55367 10.0513 8.73567 10.1113 8.96767C10.2647 9.56033 10.4473 9.85167 10.548 9.96233C10.7847 9.713 11.2127 8.70567 11.2127 7.001C11.2127 6.903 11.2127 6.81033 11.2073 6.71767C11.1947 6.521 11.27 6.32833 11.4127 6.19233C11.6773 5.941 12.1013 5.941 12.3553 6.20233L15.4153 9.32833C17.362 11.3043 17.3653 14.5263 15.422 16.507C14.476 17.471 13.2187 18.001 11.88 18.001Z" fill="white"/>
</svg>
