<svg width="25" height="24" viewBox="0 0 25 24" fill="none" xmlns="http://www.w3.org/2000/svg">
<rect x="0.106323" width="24" height="24" rx="12" fill="#755FFA"/>
<path fill-rule="evenodd" clip-rule="evenodd" d="M12.1063 6.76435L7.43966 9.38968V9.48635C7.43966 12.6463 9.15032 15.5723 11.905 17.1223L12.1063 17.2357L12.3077 17.1223C15.0623 15.5723 16.773 12.6463 16.773 9.48635V9.38968L12.1063 6.76435ZM12.1063 18.567C11.8803 18.567 11.6543 18.511 11.4537 18.3977L11.2517 18.2837C8.07766 16.499 6.10632 13.1277 6.10632 9.48635V9.38968C6.10632 8.91035 6.36632 8.46501 6.78499 8.22835L11.453 5.60301C11.8563 5.37635 12.357 5.37568 12.759 5.60235L17.4263 8.22768C17.8463 8.46501 18.1063 8.91035 18.1063 9.38968V9.48635C18.1063 13.1277 16.135 16.499 12.961 18.2837L12.7597 18.397C12.5583 18.5103 12.3323 18.567 12.1063 18.567Z" fill="white"/>
</svg>
