<svg width="24" height="24" viewBox="0 0 24 24" fill="none" xmlns="http://www.w3.org/2000/svg">
<rect width="24" height="24" rx="12" fill="#FF7C34"/>
<path fill-rule="evenodd" clip-rule="evenodd" d="M11.9997 14.7C12.1057 14.7 12.2117 14.7253 12.3083 14.7753L14.821 16.0886L14.343 13.3173C14.305 13.1 14.3777 12.8786 14.5363 12.7246L16.5603 10.7673L13.7583 10.3593C13.5417 10.328 13.3543 10.1926 13.257 9.99665L11.9997 7.46731L10.7423 9.99665C10.645 10.1926 10.4577 10.328 10.241 10.3593L7.43901 10.7673L9.46301 12.7246C9.62168 12.8786 9.69434 13.1 9.65634 13.3173L9.17834 16.0886L11.691 14.7753C11.7877 14.7253 11.8937 14.7 11.9997 14.7ZM15.7077 17.97C15.6017 17.97 15.4957 17.9453 15.399 17.8946L11.9997 16.1186L8.60034 17.8946C8.37501 18.012 8.10301 17.9913 7.89968 17.842C7.69434 17.6926 7.59234 17.44 7.63501 17.19L8.28301 13.438L5.53634 10.7813C5.35301 10.6046 5.28768 10.3393 5.36568 10.0973C5.44301 9.85531 5.65234 9.67931 5.90368 9.64265L9.70434 9.09065L11.4023 5.67331C11.6277 5.21998 12.3717 5.21998 12.597 5.67331L14.295 9.09065L18.0957 9.64265C18.347 9.67931 18.5563 9.85531 18.6337 10.0973C18.7117 10.3393 18.6463 10.6046 18.463 10.7813L15.7163 13.438L16.3643 17.19C16.407 17.44 16.305 17.6926 16.0997 17.842C15.9843 17.9273 15.8463 17.97 15.7077 17.97Z" fill="white"/>
</svg>
