<svg width="24" height="24" viewBox="0 0 24 24" fill="none" xmlns="http://www.w3.org/2000/svg">
<rect width="24" height="24" rx="12" fill="#DE57D1"/>
<path fill-rule="evenodd" clip-rule="evenodd" d="M12.2038 15.138C11.9965 15.024 11.7458 15.026 11.5438 15.1466L9.04512 16.6133L10.0238 12.8066C10.6071 13.14 11.2811 13.3333 11.9998 13.3333C12.7185 13.3333 13.3925 13.14 13.9765 12.8066L14.9691 16.668L12.2038 15.138ZM11.9998 6.66665C13.4705 6.66665 14.6665 7.86265 14.6665 9.33331C14.6665 10.804 13.4705 12 11.9998 12C10.5291 12 9.33312 10.804 9.33312 9.33331C9.33312 7.86265 10.5291 6.66665 11.9998 6.66665ZM16.6458 17.834L15.1065 11.848C15.6638 11.16 15.9998 10.286 15.9998 9.33331C15.9998 7.12731 14.2058 5.33331 11.9998 5.33331C9.79446 5.33331 7.99979 7.12731 7.99979 9.33331C7.99979 10.286 8.33579 11.16 8.89312 11.848L7.35446 17.834C7.28712 18.0953 7.38379 18.3706 7.59912 18.5326C7.81379 18.6946 8.10579 18.7093 8.33712 18.5746L11.8905 16.4886L15.6771 18.5833C15.7778 18.6393 15.8891 18.6666 15.9998 18.6666C16.1445 18.6666 16.2885 18.62 16.4085 18.5273C16.6185 18.3646 16.7125 18.092 16.6458 17.834Z" fill="white"/>
</svg>
