<svg width="190" height="40" viewBox="0 0 190 40" fill="none" xmlns="http://www.w3.org/2000/svg">
<path opacity="0.3" d="M20.5714 38.8571C31.3015 38.8571 40 30.1587 40 19.4286C40 8.69847 31.3015 0 20.5714 0C9.84132 0 1.14285 8.69847 1.14285 19.4286C1.14285 30.1587 9.84132 38.8571 20.5714 38.8571Z" fill="#747B91"/>
<path d="M62.6514 16.2971C62.8343 14.8571 63.2686 13.7829 64.3428 12.0914L63.3371 11.5886C61.6914 14.9257 59.3828 16.5486 56.2971 16.5486C51.84 16.5486 48.5714 13.0971 48.5714 8.32C48.5714 3.42857 52.0914 0 57.1428 0C61.0514 0 64.0914 2.10286 65.2343 5.53143H61.5771C60.6857 4.06857 59.0628 3.17714 57.1886 3.17714C54.24 3.17714 52.1828 5.28 52.1828 8.29714C52.1828 11.2686 54.24 13.4171 57.0971 13.4171C59.2 13.4171 60.8457 12.2514 61.5314 10.3086H57.8057V7.79429H65.5086V16.2971H62.6514Z" fill="white"/>
<path d="M71.6832 16.2971H67.8661L74.3118 0.297143H78.266L84.7118 16.2971H80.9175L79.8203 13.5086H72.7575L71.6832 16.2971ZM73.7632 10.72H78.8375C77.2832 6.76571 76.9403 5.57714 76.826 3.36H75.7746C75.6603 5.57714 75.3175 6.76571 73.7632 10.72Z" fill="white"/>
<path d="M90.5125 16.2971H86.8325L88.9125 0.297143H92.9582C96.3639 7.2 97.0039 8.91428 97.1639 11.3371H98.1696C98.3296 8.91428 98.9696 7.2 102.375 0.297143H106.421L108.524 16.2971H104.821C103.975 8.93714 103.975 7.42857 104.638 4.11428L103.564 3.88571C102.878 6.94857 102.284 8.38857 99.1296 14.3543H96.2039C93.0496 8.38857 92.4553 6.94857 91.7696 3.88571L90.6953 4.11428C91.381 7.42857 91.3582 8.93714 90.5125 16.2971Z" fill="white"/>
<path d="M111.644 16.2971V0.297143H122.433V3.13143H115.187V6.76571H121.564V9.55429H115.187V13.44H122.639V16.2971H111.644Z" fill="white"/>
<path d="M141.61 16.2974V9.76022H134.41V16.2974H130.844V0.297363H134.41V6.56022H141.61V0.297363H145.176V16.2974H141.61Z" fill="#FF7C34"/>
<path d="M148.88 16.2974V0.297363H159.668V3.13165H152.423V6.76593H158.8V9.55451H152.423V13.4402H159.874V16.2974H148.88Z" fill="#FF7C34"/>
<path d="M162.942 16.2974V0.297363H166.508V13.0974H173.548V16.2974H162.942Z" fill="#FF7C34"/>
<path d="M176.067 16.2974V0.297363H182.536C186.262 0.297363 188.73 2.56022 188.73 5.98879C188.73 9.3945 186.262 11.6802 182.559 11.6802H179.633V16.2974H176.067ZM179.565 8.75451H182.125C184.159 8.75451 185.233 7.81736 185.233 6.01165C185.233 4.20593 184.159 3.29165 182.125 3.29165H179.565V8.75451Z" fill="#FF7C34"/>
<path d="M49.2115 38.8569V22.8569H59.6115V25.9426H52.7315V30.1255H58.743V33.1198H52.7773V38.8569H49.2115Z" fill="white"/>
<path d="M62.3142 38.8569V22.8569H65.8799V38.8569H62.3142Z" fill="white"/>
<path d="M73.1562 38.8569H69.6133V22.8569H73.1333C77.979 29.4398 79.5333 31.8855 80.8819 34.9712L81.8648 34.5598C80.699 31.2912 80.5162 29.8055 80.539 22.8569H84.0819V38.8569H80.5619C75.7162 32.2741 74.1619 29.8284 72.8362 26.7426L71.8305 27.1541C72.9962 30.4226 73.179 31.9084 73.1562 38.8569Z" fill="white"/>
<path d="M87.783 38.8569V22.8569H94.2515C99.4173 22.8569 102.869 26.0341 102.869 30.8569C102.869 35.6798 99.4173 38.8569 94.2515 38.8569H87.783ZM91.3487 35.6341H94.0458C97.2001 35.6341 99.2115 33.7826 99.2115 30.8569C99.2115 27.9312 97.223 26.0798 94.0458 26.0798H91.3487V35.6341Z" fill="white"/>
<path d="M105.908 38.8569V22.8569H116.697V25.6912H109.451V29.3255H115.828V32.1141H109.451V35.9998H116.902V38.8569H105.908Z" fill="white"/>
<path d="M129.982 38.8569C127.765 34.0798 127.239 33.6912 124.428 33.6912H123.536V38.8569H119.97V22.8569H127.148C130.805 22.8569 133.068 24.6855 133.068 27.6341C133.068 30.1484 131.468 31.6112 128.496 31.7941V32.8226C130.873 32.9369 131.742 33.8741 133.913 38.8569H129.982ZM123.468 30.7884H126.553C128.473 30.7884 129.525 29.9198 129.525 28.2512C129.525 26.6055 128.473 25.7141 126.553 25.7141H123.468V30.7884Z" fill="white"/>
<path d="M10.928 25.5754L0.519174 34.1516C-0.143203 34.6973 -0.181625 35.6762 0.460704 36.3158L3.6617 39.5028C4.30487 40.1431 5.28465 40.099 5.82654 39.4325L14.3359 28.9683L10.9278 25.5752L10.928 25.5754Z" fill="#FF7C34"/>
<path d="M20.5659 29.2626C26.0672 29.2626 30.527 24.8028 30.527 19.3015C30.527 13.8001 26.0672 9.34033 20.5659 9.34033C15.0645 9.34033 10.6047 13.8001 10.6047 19.3015C10.6047 24.8028 15.0645 29.2626 20.5659 29.2626Z" fill="#FF7C34"/>
<path d="M29.8448 9.98139C24.6976 4.85674 16.3705 4.87512 11.2458 10.0225C6.12117 15.1697 6.13955 23.4968 11.287 28.6215C16.4342 33.7461 24.7613 33.7277 29.8859 28.5803C35.0106 23.4331 34.9922 15.106 29.8448 9.98139Z" fill="#FF7C34"/>
<path d="M10.928 25.5959L0.519174 34.1721C-0.143203 34.7178 -0.181625 35.6967 0.460704 36.3363L3.6617 39.5234C4.30487 40.1636 5.28465 40.1195 5.82654 39.453L14.3359 28.9888L10.9278 25.5957L10.928 25.5959Z" fill="#FF7C34"/>
<path d="M20.5659 29.2831C26.0672 29.2831 30.527 24.8233 30.527 19.322C30.527 13.8206 26.0672 9.36084 20.5659 9.36084C15.0645 9.36084 10.6047 13.8206 10.6047 19.322C10.6047 24.8233 15.0645 29.2831 20.5659 29.2831Z" fill="#FF7C34"/>
<path d="M29.8448 10.0019C24.6976 4.87725 16.3705 4.89562 11.2458 10.043C6.12117 15.1902 6.13955 23.5173 11.287 28.642C16.4342 33.7666 24.7613 33.7482 29.8859 28.6008C35.0106 23.4536 34.9922 15.1265 29.8448 10.0019Z" fill="#FF7C34"/>
<path d="M10.928 25.6169L0.519174 34.1931C-0.143203 34.7388 -0.181625 35.7177 0.460704 36.3573L3.6617 39.5444C4.30487 40.1846 5.28465 40.1405 5.82654 39.474L14.3359 29.0098L10.9278 25.6167L10.928 25.6169Z" fill="#FF7C34"/>
<path d="M20.5659 29.3041C26.0672 29.3041 30.527 24.8443 30.527 19.343C30.527 13.8416 26.0672 9.38184 20.5659 9.38184C15.0645 9.38184 10.6047 13.8416 10.6047 19.343C10.6047 24.8443 15.0645 29.3041 20.5659 29.3041Z" fill="#FF7C34"/>
<path d="M29.8448 10.0229C24.6976 4.89824 16.3705 4.91662 11.2458 10.064C6.12117 15.2112 6.13955 23.5383 11.287 28.663C16.4342 33.7876 24.7613 33.7692 29.8859 28.6218C35.0106 23.4746 34.9922 15.1475 29.8448 10.0229Z" fill="#FF7C34"/>
<path d="M10.928 25.5959L0.519174 34.1721C-0.143203 34.7178 -0.181625 35.6967 0.460704 36.3363L3.6617 39.5234C4.30487 40.1636 5.28465 40.1195 5.82654 39.453L14.3359 28.9888L10.9278 25.5957L10.928 25.5959Z" fill="#FF7C34"/>
<path d="M20.5714 27.9998C25.3053 27.9998 29.1429 24.1622 29.1429 19.4284C29.1429 14.6945 25.3053 10.8569 20.5714 10.8569C15.8376 10.8569 12 14.6945 12 19.4284C12 24.1622 15.8376 27.9998 20.5714 27.9998Z" fill="#24262F"/>
</svg>
