<svg width="54" height="20" viewBox="0 0 54 20" fill="none" xmlns="http://www.w3.org/2000/svg">
<g clip-path="url(#clip0_1130_4270)">
<path d="M19.9423 6.24585H16.991C16.8932 6.24579 16.7987 6.28062 16.7244 6.34408C16.6501 6.40754 16.6009 6.49544 16.5857 6.59195L15.3921 14.16C15.3866 14.1951 15.3888 14.231 15.3985 14.2652C15.4082 14.2994 15.4252 14.3311 15.4483 14.3581C15.4715 14.3851 15.5002 14.4067 15.5325 14.4216C15.5648 14.4364 15.5999 14.444 15.6355 14.444H17.0445C17.1422 14.444 17.2368 14.4091 17.3111 14.3456C17.3854 14.282 17.4346 14.194 17.4497 14.0974L17.7716 12.0562C17.7867 11.9597 17.8358 11.8718 17.91 11.8082C17.9843 11.7447 18.0787 11.7097 18.1764 11.7097H19.1107C21.0548 11.7097 22.1769 10.7689 22.4699 8.90462C22.602 8.08899 22.4755 7.44814 22.0936 6.99933C21.6741 6.50651 20.9301 6.24585 19.9423 6.24585ZM20.2828 9.00992C20.1214 10.0689 19.3123 10.0689 18.5299 10.0689H18.0845L18.3969 8.09115C18.4061 8.03329 18.4356 7.98059 18.4801 7.94254C18.5247 7.90449 18.5813 7.88358 18.6399 7.88358H18.844C19.377 7.88358 19.8797 7.88358 20.1395 8.18739C20.2945 8.36864 20.3419 8.63792 20.2828 9.00992ZM28.7645 8.97583H27.3511C27.2926 8.97583 27.2359 8.99674 27.1914 9.03479C27.1468 9.07284 27.1173 9.12554 27.1082 9.1834L27.0456 9.5787L26.9468 9.43543C26.6408 8.99136 25.9585 8.84291 25.2776 8.84291C23.7158 8.84291 22.3819 10.0258 22.1221 11.6851C21.987 12.5128 22.179 13.3043 22.6486 13.8562C23.0792 14.3637 23.6955 14.5752 24.4287 14.5752C25.6871 14.5752 26.3849 13.766 26.3849 13.766L26.3219 14.1587C26.3163 14.1938 26.3184 14.2297 26.328 14.264C26.3376 14.2982 26.3545 14.33 26.3775 14.357C26.4006 14.3841 26.4292 14.4059 26.4615 14.4208C26.4938 14.4357 26.5289 14.4435 26.5644 14.4435H27.8375C27.9353 14.4436 28.0298 14.4087 28.1041 14.3452C28.1784 14.2816 28.2276 14.1936 28.2427 14.097L29.0066 9.25979C29.0122 9.22475 29.0101 9.18892 29.0006 9.15475C28.991 9.12059 28.9741 9.08892 28.9511 9.06192C28.9281 9.03492 28.8994 9.01323 28.8672 8.99837C28.835 8.98351 28.7999 8.97582 28.7645 8.97583ZM26.7944 11.7265C26.6581 12.5339 26.0172 13.076 25.1999 13.076C24.7895 13.076 24.4615 12.9443 24.2509 12.6949C24.042 12.4472 23.9626 12.0946 24.0291 11.7019C24.1564 10.9014 24.808 10.3417 25.6129 10.3417C26.0142 10.3417 26.3405 10.475 26.5554 10.7266C26.7707 10.9808 26.8562 11.3355 26.7944 11.7265ZM36.2915 8.97583H34.8713C34.8043 8.97593 34.7384 8.99238 34.6792 9.02374C34.62 9.0551 34.5694 9.10042 34.5317 9.15578L32.5729 12.0411L31.7426 9.26842C31.7171 9.18385 31.6651 9.10974 31.5942 9.05704C31.5233 9.00435 31.4373 8.97587 31.349 8.97583H29.9534C29.9142 8.97572 29.8756 8.98498 29.8407 9.00282C29.8058 9.02066 29.7757 9.04658 29.7529 9.07841C29.73 9.11024 29.7151 9.14706 29.7094 9.18582C29.7037 9.22457 29.7073 9.26414 29.7199 9.30121L31.2843 13.892L29.8136 15.9682C29.7874 16.005 29.7719 16.0483 29.7688 16.0934C29.7656 16.1384 29.7749 16.1834 29.7956 16.2235C29.8163 16.2636 29.8477 16.2973 29.8862 16.3207C29.9248 16.3442 29.9691 16.3566 30.0142 16.3566H31.4327C31.499 16.3567 31.5642 16.3407 31.6229 16.3101C31.6816 16.2794 31.732 16.2349 31.7698 16.1805L36.4935 9.36206C36.5191 9.32517 36.5341 9.28198 36.5369 9.23716C36.5397 9.19235 36.5302 9.14762 36.5094 9.10783C36.4886 9.06803 36.4573 9.0347 36.4189 9.01143C36.3805 8.98816 36.3364 8.97585 36.2915 8.97583Z" fill="white"/>
<path d="M40.9937 6.24585H38.0419C37.9442 6.2459 37.8498 6.28078 37.7756 6.34422C37.7014 6.40767 37.6523 6.49552 37.6371 6.59196L36.4434 14.16C36.4379 14.1951 36.44 14.2309 36.4496 14.2651C36.4593 14.2993 36.4762 14.3309 36.4992 14.3579C36.5223 14.3849 36.5509 14.4066 36.5831 14.4214C36.6154 14.4363 36.6505 14.444 36.686 14.444H38.2007C38.269 14.4439 38.3351 14.4194 38.387 14.3749C38.4389 14.3305 38.4732 14.269 38.4838 14.2015L38.8225 12.0562C38.8377 11.9597 38.8868 11.8718 38.961 11.8082C39.0352 11.7447 39.1296 11.7097 39.2273 11.7097H40.1612C42.1058 11.7097 43.2274 10.7689 43.5208 8.90463C43.6533 8.089 43.526 7.44815 43.1441 6.99934C42.725 6.50651 41.9815 6.24585 40.9937 6.24585ZM41.3342 9.00992C41.1732 10.0689 40.364 10.0689 39.5812 10.0689H39.1363L39.4492 8.09116C39.4581 8.03329 39.4875 7.98055 39.532 7.94247C39.5765 7.9044 39.6331 7.88351 39.6917 7.88358H39.8958C40.4283 7.88358 40.9315 7.88358 41.1913 8.18739C41.3462 8.36864 41.3933 8.63793 41.3342 9.00992ZM49.8154 8.97583H48.4029C48.3444 8.97567 48.2877 8.99653 48.2432 9.03462C48.1986 9.07271 48.1693 9.1255 48.1604 9.18341L48.0978 9.5787L47.9986 9.43543C47.6926 8.99137 47.0108 8.84291 46.3298 8.84291C44.768 8.84291 43.4345 10.0258 43.1747 11.6851C43.0401 12.5128 43.2313 13.3043 43.7008 13.8562C44.1323 14.3637 44.7477 14.5752 45.4809 14.5752C46.7393 14.5752 47.4371 13.766 47.4371 13.766L47.3741 14.1587C47.3685 14.1939 47.3706 14.2299 47.3802 14.2642C47.3899 14.2985 47.4069 14.3303 47.43 14.3574C47.4532 14.3845 47.4819 14.4062 47.5143 14.4211C47.5467 14.436 47.5819 14.4436 47.6175 14.4436H48.8902C48.9878 14.4435 49.0823 14.4086 49.1565 14.345C49.2307 14.2815 49.2798 14.1935 49.2949 14.097L50.0592 9.25979C50.0646 9.22465 50.0624 9.18875 50.0526 9.15456C50.0428 9.12037 50.0258 9.08869 50.0026 9.06172C49.9795 9.03474 49.9507 9.01309 49.9184 8.99827C49.8861 8.98344 49.8509 8.97579 49.8154 8.97583ZM47.8454 11.7265C47.7099 12.5339 47.0682 13.076 46.2508 13.076C45.8413 13.076 45.5124 12.9444 45.3018 12.6949C45.093 12.4472 45.0144 12.0946 45.08 11.7019C45.2082 10.9014 45.859 10.3417 46.6638 10.3417C47.0651 10.3417 47.3914 10.475 47.6063 10.7266C47.8225 10.9808 47.9079 11.3355 47.8454 11.7265ZM51.4816 6.45343L50.2702 14.16C50.2647 14.1951 50.2668 14.2309 50.2764 14.2651C50.2861 14.2993 50.303 14.3309 50.3261 14.3579C50.3491 14.3849 50.3777 14.4066 50.41 14.4214C50.4422 14.4363 50.4773 14.444 50.5128 14.444H51.7306C51.933 14.444 52.1048 14.2973 52.1358 14.0975L53.3304 6.52981C53.3359 6.49473 53.3338 6.45887 53.3242 6.42469C53.3145 6.3905 53.2976 6.35881 53.2746 6.33179C53.2515 6.30477 53.2229 6.28306 53.1907 6.26815C53.1584 6.25324 53.1233 6.24549 53.0878 6.24542H51.7241C51.6656 6.24563 51.609 6.26668 51.5646 6.30479C51.5201 6.3429 51.4907 6.3956 51.4816 6.45343Z" fill="white"/>
<path d="M9.94633 6.64203C9.93425 6.71928 9.92044 6.79825 9.9049 6.87938C9.37108 9.62015 7.54476 10.567 5.21224 10.567H4.02462C3.73936 10.567 3.49899 10.7741 3.45454 11.0555L2.84649 14.9118L2.6743 16.0049C2.66744 16.0483 2.67006 16.0926 2.68198 16.1349C2.69389 16.1771 2.71483 16.2163 2.74333 16.2497C2.77184 16.283 2.80724 16.3099 2.8471 16.3282C2.88696 16.3466 2.93033 16.3562 2.97423 16.3562H5.08062C5.33005 16.3562 5.54194 16.1749 5.58121 15.929L5.60193 15.8219L5.99852 13.3051L6.02398 13.167C6.06282 12.9202 6.27514 12.7389 6.52458 12.7389H6.83961C8.8804 12.7389 10.478 11.9104 10.9449 9.51269C11.14 8.51107 11.039 7.67472 10.5229 7.08652C10.3593 6.90457 10.1639 6.75394 9.94633 6.64203Z" fill="white"/>
<path d="M4.14892 6.65581C4.16731 6.53646 4.2279 6.42767 4.31967 6.34919C4.41145 6.27072 4.52834 6.22777 4.64909 6.22814H7.82184C8.19771 6.22814 8.54856 6.25274 8.86877 6.30453C9.08546 6.33858 9.29915 6.38951 9.5079 6.45686C9.66541 6.50908 9.81171 6.57079 9.94678 6.642C10.1056 5.62915 9.94549 4.93954 9.39785 4.31509C8.79412 3.62763 7.70445 3.33331 6.31012 3.33331H2.26219C1.97737 3.33331 1.73441 3.54046 1.69039 3.82226L0.00432993 14.5096C-0.00352346 14.5592 -0.000535514 14.6099 0.0130882 14.6583C0.026712 14.7066 0.0506482 14.7514 0.0832504 14.7897C0.115853 14.8279 0.156347 14.8586 0.201948 14.8797C0.247549 14.9007 0.297175 14.9117 0.347411 14.9118H2.84651L3.47398 10.9307L4.14892 6.65581Z" fill="white"/>
<path d="M4.86321 6.94027C4.68063 7.14638 4.68063 7.75506 4.31548 10.0223C5.41095 9.81618 5.65992 10.0854 7.12054 9.59075C8.94633 8.97241 9.06251 7.35249 9.06251 6.94027C8.41519 6.78568 5.04579 6.73415 4.86321 6.94027Z" fill="white"/>
</g>
<defs>
<clipPath id="clip0_1130_4270">
<rect width="53.3333" height="20" fill="white"/>
</clipPath>
</defs>
</svg>
