<svg width="54" height="16" viewBox="0 0 54 16" fill="none" xmlns="http://www.w3.org/2000/svg">
<path d="M12.3559 11.4815H10.0772L11.5025 2.66895H13.781L12.3559 11.4815Z" fill="white"/>
<path d="M20.6162 2.8844C20.1667 2.70609 19.4539 2.50922 18.5724 2.50922C16.3222 2.50922 14.7376 3.70916 14.7279 5.42472C14.7092 6.69045 15.8624 7.39347 16.7249 7.81551C17.6065 8.24676 17.9062 8.52825 17.9062 8.91265C17.8972 9.50303 17.1938 9.77517 16.5377 9.77517C15.628 9.77517 15.1406 9.63486 14.3998 9.3064L14.0997 9.1656L13.7809 11.1438C14.3153 11.3873 15.2999 11.6034 16.3222 11.6128C18.7131 11.6128 20.2697 10.4315 20.2881 8.60326C20.2972 7.60007 19.6883 6.83138 18.3754 6.20325C17.5784 5.80003 17.0904 5.52814 17.0904 5.11557C17.0997 4.74051 17.5032 4.35636 18.4028 4.35636C19.1436 4.33754 19.6879 4.5156 20.1002 4.69379L20.3063 4.78736L20.6162 2.8844Z" fill="white"/>
<path d="M23.6447 8.35952C23.8324 7.85325 24.5544 5.89384 24.5544 5.89384C24.545 5.91265 24.7417 5.37823 24.8542 5.05014L25.0135 5.80948C25.0135 5.80948 25.445 7.91891 25.5387 8.35952C25.1826 8.35952 24.0948 8.35952 23.6447 8.35952ZM26.4574 2.66895H24.6949C24.1513 2.66895 23.7384 2.82819 23.5039 3.40013L20.1193 11.4814H22.5102C22.5102 11.4814 22.9038 10.3937 22.9884 10.1594C23.2507 10.1594 25.5766 10.1594 25.914 10.1594C25.9794 10.4688 26.1859 11.4814 26.1859 11.4814H28.2957L26.4574 2.66895Z" fill="white"/>
<path d="M8.17409 2.66895L5.94254 8.67825C5.52998 7.27197 4.30385 5.22217 2.85993 4.46246L4.59233 11.4721H7.00193L10.5836 2.66895H8.17409Z" fill="white"/>
<path d="M3.87029 2.66895H0.204176L0.16667 2.84701C3.02647 3.57831 4.92046 5.34109 5.69862 7.45987L4.90165 3.40972C4.77044 2.84688 4.36722 2.68751 3.87029 2.66895Z" fill="white"/>
<path d="M37.6051 15.5787V14.5764C37.611 14.4921 37.5988 14.4075 37.5694 14.3283C37.54 14.2491 37.494 14.177 37.4346 14.117C37.3751 14.0569 37.3036 14.0102 37.2247 13.9799C37.1458 13.9497 37.0613 13.9366 36.977 13.9416C36.8666 13.9343 36.7562 13.9569 36.6575 14.0068C36.5588 14.0568 36.4752 14.1323 36.4157 14.2256C36.3614 14.1351 36.2837 14.061 36.1907 14.011C36.0978 13.961 35.9932 13.937 35.8878 13.9416C35.7959 13.9369 35.7044 13.9564 35.6223 13.998C35.5403 14.0396 35.4705 14.1019 35.42 14.1788V13.9817H35.0725V15.5787H35.4233V14.7C35.4159 14.6454 35.4206 14.5898 35.4371 14.5372C35.4536 14.4846 35.4815 14.4363 35.5189 14.3958C35.5562 14.3553 35.6021 14.3235 35.6531 14.3027C35.7042 14.2819 35.7592 14.2727 35.8143 14.2757C36.0448 14.2757 36.1617 14.426 36.1617 14.6967V15.5854H36.5126V14.7C36.5054 14.6454 36.5103 14.59 36.5269 14.5375C36.5436 14.4851 36.5715 14.4369 36.6088 14.3964C36.6461 14.356 36.6918 14.3242 36.7427 14.3033C36.7936 14.2824 36.8485 14.273 36.9035 14.2757C37.1407 14.2757 37.2543 14.426 37.2543 14.6967V15.5854L37.6051 15.5787ZM42.7956 13.9817H42.2243V13.4972H41.8735V13.9817H41.5561V14.2991H41.8802V15.0341C41.8802 15.405 42.0238 15.6255 42.4348 15.6255C42.5883 15.626 42.7389 15.5832 42.8692 15.5019L42.7689 15.2045C42.6757 15.2601 42.57 15.2911 42.4615 15.2947C42.2945 15.2947 42.231 15.1878 42.231 15.0274V14.2991H42.799L42.7956 13.9817ZM45.7593 13.9416C45.6746 13.9391 45.5907 13.9595 45.5166 14.0006C45.4425 14.0418 45.3809 14.1022 45.3383 14.1754V13.9817H44.9941V15.5787H45.3416V14.6833C45.3416 14.4193 45.4552 14.2723 45.6757 14.2723C45.7501 14.2713 45.8239 14.2849 45.8929 14.3124L45.9998 13.9783C45.9205 13.9499 45.8369 13.9352 45.7526 13.9349L45.7593 13.9416ZM41.2788 14.1086C41.0821 13.9917 40.8559 13.9337 40.6272 13.9416C40.2229 13.9416 39.959 14.1353 39.959 14.4528C39.959 14.7134 40.1528 14.8737 40.5103 14.9239L40.6773 14.9473C40.8678 14.974 40.958 15.0241 40.958 15.1143C40.958 15.2379 40.831 15.3081 40.5938 15.3081C40.403 15.3136 40.2159 15.2548 40.0626 15.141L39.8955 15.4117C40.0979 15.553 40.3404 15.6256 40.5871 15.6188C41.0482 15.6188 41.3155 15.4017 41.3155 15.0976C41.3155 14.7936 41.105 14.6699 40.7575 14.6198L40.5905 14.5964C40.4401 14.5764 40.3198 14.5463 40.3198 14.4394C40.3198 14.3325 40.4334 14.2523 40.6239 14.2523C40.7999 14.2543 40.9725 14.3015 41.1251 14.3893L41.2788 14.1086ZM50.5856 13.9416C50.5009 13.9391 50.4171 13.9595 50.343 14.0006C50.2689 14.0418 50.2073 14.1022 50.1646 14.1754V13.9817H49.8205V15.5787H50.168V14.6833C50.168 14.4193 50.2816 14.2723 50.5021 14.2723C50.5764 14.2713 50.6502 14.2849 50.7193 14.3124L50.8262 13.9783C50.7468 13.9499 50.6632 13.9352 50.5789 13.9349L50.5856 13.9416ZM46.1084 14.7769C46.1043 14.8891 46.1236 15.0009 46.1652 15.1053C46.2068 15.2096 46.2697 15.3041 46.3499 15.3827C46.4301 15.4614 46.5258 15.5224 46.6309 15.5619C46.7361 15.6014 46.8483 15.6185 46.9604 15.6121C47.1691 15.6228 47.3741 15.5548 47.5351 15.4217L47.368 15.141C47.2479 15.2326 47.1015 15.283 46.9504 15.2847C46.822 15.2743 46.7021 15.216 46.6148 15.1212C46.5274 15.0265 46.4789 14.9024 46.4789 14.7735C46.4789 14.6447 46.5274 14.5205 46.6148 14.4258C46.7021 14.3311 46.822 14.2727 46.9504 14.2623C47.1015 14.264 47.2479 14.3144 47.368 14.406L47.5351 14.1253C47.3741 13.9922 47.1691 13.9243 46.9604 13.9349C46.8483 13.9285 46.7361 13.9456 46.6309 13.9852C46.5258 14.0247 46.4301 14.0857 46.3499 14.1643C46.2697 14.2429 46.2068 14.3374 46.1652 14.4418C46.1236 14.5461 46.1043 14.6579 46.1084 14.7702V14.7769ZM49.3627 14.7769V13.9817H49.0153V14.1754C48.9562 14.0995 48.88 14.0387 48.7929 13.998C48.7057 13.9574 48.6102 13.938 48.5141 13.9416C48.2925 13.9416 48.0801 14.0296 47.9234 14.1862C47.7668 14.3429 47.6788 14.5553 47.6788 14.7769C47.6788 14.9984 47.7668 15.2109 47.9234 15.3675C48.0801 15.5241 48.2925 15.6121 48.5141 15.6121C48.6102 15.6157 48.7057 15.5963 48.7929 15.5557C48.88 15.515 48.9562 15.4542 49.0153 15.3783V15.5721H49.3627V14.7769ZM48.0697 14.7769C48.0752 14.6828 48.1082 14.5925 48.1644 14.517C48.2206 14.4414 48.2977 14.384 48.3862 14.3517C48.4746 14.3194 48.5706 14.3137 48.6623 14.3353C48.754 14.3569 48.8373 14.4048 48.9021 14.4732C48.9669 14.5415 49.0102 14.6273 49.0269 14.72C49.0435 14.8127 49.0327 14.9082 48.9957 14.9948C48.9587 15.0814 48.8972 15.1554 48.8188 15.2074C48.7403 15.2595 48.6483 15.2876 48.5542 15.2881C48.488 15.2889 48.4224 15.276 48.3615 15.2503C48.3005 15.2245 48.2456 15.1865 48.2001 15.1384C48.1546 15.0904 48.1195 15.0335 48.0971 14.9713C48.0746 14.9091 48.0653 14.8429 48.0697 14.7769ZM43.8765 13.9416C43.655 13.9447 43.4438 14.0356 43.2893 14.1945C43.1348 14.3533 43.0498 14.567 43.0529 14.7885C43.056 15.0101 43.147 15.2213 43.3058 15.3758C43.4647 15.5302 43.6784 15.6153 43.8999 15.6121C44.1403 15.6245 44.3766 15.5471 44.5631 15.395L44.3961 15.1377C44.2642 15.2435 44.1007 15.3023 43.9316 15.3048C43.8168 15.3146 43.7026 15.2793 43.6134 15.2063C43.5241 15.1333 43.4669 15.0284 43.4539 14.9138H44.64C44.64 14.8704 44.64 14.827 44.64 14.7802C44.64 14.279 44.3292 13.9449 43.8815 13.9449L43.8765 13.9416ZM43.8765 14.2523C43.9285 14.2512 43.9802 14.2603 44.0287 14.2792C44.0771 14.2981 44.1214 14.3263 44.159 14.3623C44.1965 14.3983 44.2266 14.4414 44.2475 14.489C44.2684 14.5366 44.2797 14.5879 44.2808 14.6399H43.4455C43.4516 14.5326 43.4994 14.432 43.5787 14.3596C43.658 14.2871 43.7625 14.2486 43.8698 14.2523H43.8765ZM52.582 14.7802V13.3401H52.2478V14.1754C52.1888 14.0995 52.1126 14.0387 52.0255 13.998C51.9383 13.9574 51.8428 13.938 51.7467 13.9416C51.5251 13.9416 51.3127 14.0296 51.156 14.1862C50.9994 14.3429 50.9114 14.5553 50.9114 14.7769C50.9114 14.9984 50.9994 15.2109 51.156 15.3675C51.3127 15.5241 51.5251 15.6121 51.7467 15.6121C51.8428 15.6157 51.9383 15.5963 52.0255 15.5557C52.1126 15.515 52.1888 15.4542 52.2478 15.3783V15.5721H52.582V14.7802ZM53.1617 15.3465C53.1834 15.3463 53.2049 15.3502 53.2251 15.3582C53.2443 15.366 53.2619 15.3774 53.2769 15.3916C53.2916 15.406 53.3035 15.423 53.312 15.4418C53.3205 15.4613 53.3248 15.4823 53.3248 15.5036C53.3248 15.5248 53.3205 15.5459 53.312 15.5654C53.3035 15.5841 53.2916 15.6011 53.2769 15.6155C53.2619 15.6297 53.2443 15.6411 53.2251 15.6489C53.2051 15.6577 53.1835 15.6623 53.1617 15.6623C53.13 15.662 53.099 15.6528 53.0724 15.6356C53.0458 15.6185 53.0246 15.5941 53.0113 15.5654C53.0029 15.5458 52.9986 15.5248 52.9986 15.5036C52.9986 15.4823 53.0029 15.4613 53.0113 15.4418C53.0198 15.423 53.0317 15.406 53.0464 15.3916C53.0614 15.3774 53.079 15.366 53.0982 15.3582C53.1199 15.3496 53.1433 15.3456 53.1667 15.3465H53.1617ZM53.1617 15.6289C53.1783 15.629 53.1948 15.6255 53.2101 15.6188C53.2245 15.6124 53.2375 15.6033 53.2485 15.5921C53.2694 15.5693 53.281 15.5395 53.281 15.5086C53.281 15.4776 53.2694 15.4478 53.2485 15.425C53.2375 15.4138 53.2245 15.4047 53.2101 15.3983C53.1948 15.3917 53.1783 15.3882 53.1617 15.3883C53.145 15.3884 53.1285 15.3918 53.1132 15.3983C53.0982 15.4045 53.0846 15.4136 53.0731 15.425C53.0522 15.4478 53.0406 15.4776 53.0406 15.5086C53.0406 15.5395 53.0522 15.5693 53.0731 15.5921C53.0846 15.6036 53.0982 15.6126 53.1132 15.6188C53.1301 15.6261 53.1483 15.6295 53.1667 15.6289H53.1617ZM53.1717 15.4301C53.1873 15.4293 53.2026 15.434 53.2151 15.4434C53.2202 15.4477 53.2243 15.453 53.2269 15.4591C53.2295 15.4652 53.2306 15.4719 53.2301 15.4785C53.2304 15.4841 53.2295 15.4896 53.2275 15.4948C53.2254 15.4999 53.2224 15.5046 53.2185 15.5086C53.2088 15.5174 53.1964 15.5227 53.1834 15.5236L53.2318 15.5787H53.1934L53.1483 15.5236H53.1333V15.5787H53.1015V15.4317L53.1717 15.4301ZM53.1349 15.4585V15.4985H53.1717C53.1782 15.5005 53.1852 15.5005 53.1917 15.4985C53.1929 15.4962 53.1935 15.4936 53.1935 15.491C53.1935 15.4884 53.1929 15.4858 53.1917 15.4835C53.1929 15.4812 53.1935 15.4786 53.1935 15.476C53.1935 15.4734 53.1929 15.4708 53.1917 15.4685C53.1852 15.4665 53.1782 15.4665 53.1717 15.4685L53.1349 15.4585ZM51.2973 14.7802C51.3028 14.6862 51.3357 14.5959 51.392 14.5203C51.4482 14.4448 51.5253 14.3873 51.6138 14.355C51.7022 14.3228 51.7982 14.3171 51.8899 14.3386C51.9815 14.3602 52.0649 14.4081 52.1297 14.4765C52.1944 14.5448 52.2378 14.6307 52.2545 14.7233C52.2711 14.816 52.2602 14.9116 52.2233 14.9982C52.1863 15.0848 52.1248 15.1587 52.0463 15.2108C51.9679 15.2629 51.8759 15.2909 51.7817 15.2914C51.7156 15.2922 51.65 15.2794 51.5891 15.2536C51.5281 15.2279 51.4732 15.1898 51.4277 15.1418C51.3822 15.0938 51.3471 15.0369 51.3247 14.9746C51.3022 14.9124 51.2929 14.8462 51.2973 14.7802ZM39.5647 14.7802V13.9817H39.2172V14.1754C39.1582 14.0995 39.082 14.0387 38.9949 13.998C38.9077 13.9574 38.8122 13.938 38.7161 13.9416C38.4945 13.9416 38.2821 14.0296 38.1254 14.1862C37.9688 14.3429 37.8808 14.5553 37.8808 14.7769C37.8808 14.9984 37.9688 15.2109 38.1254 15.3675C38.2821 15.5241 38.4945 15.6121 38.7161 15.6121C38.8122 15.6157 38.9077 15.5963 38.9949 15.5557C39.082 15.515 39.1582 15.4542 39.2172 15.3783V15.5721H39.5647V14.7802ZM38.2717 14.7802C38.2772 14.6862 38.3101 14.5959 38.3664 14.5203C38.4226 14.4448 38.4997 14.3873 38.5882 14.355C38.6766 14.3228 38.7726 14.3171 38.8643 14.3386C38.956 14.3602 39.0393 14.4081 39.1041 14.4765C39.1689 14.5448 39.2122 14.6307 39.2289 14.7233C39.2455 14.816 39.2347 14.9116 39.1977 14.9982C39.1607 15.0848 39.0992 15.1587 39.0208 15.2108C38.9423 15.2629 38.8503 15.2909 38.7562 15.2914C38.6897 15.2927 38.6238 15.2802 38.5624 15.2546C38.5011 15.2291 38.4457 15.1911 38.3999 15.143C38.354 15.095 38.3186 15.0379 38.296 14.9754C38.2734 14.913 38.2639 14.8465 38.2683 14.7802H38.2717Z" fill="white"/>
<path fill-rule="evenodd" clip-rule="evenodd" d="M52.5837 9.70648C53.1825 8.74991 53.5 7.64417 53.5001 6.51566V6.51398C53.5 5.38547 53.1825 4.27973 52.5837 3.32316C51.985 2.36659 51.1291 1.59779 50.1141 1.10463C49.099 0.61148 47.9657 0.413874 46.8436 0.534403C45.7216 0.654931 44.6561 1.08873 43.7689 1.78622C44.485 2.34897 45.0639 3.06699 45.4619 3.88612C45.86 4.70525 46.0668 5.60409 46.0668 6.51482C46.0668 7.42555 45.86 8.32439 45.4619 9.14352C45.0639 9.96265 44.485 10.6807 43.7689 11.2434C44.6561 11.9409 45.7216 12.3747 46.8436 12.4952C47.9657 12.6158 49.099 12.4182 50.1141 11.925C51.1291 11.4319 51.985 10.663 52.5837 9.70648ZM42.075 3.88653C41.677 4.70593 41.4707 5.60513 41.4717 6.51606C41.471 7.42671 41.6774 8.32558 42.0754 9.14467C42.4733 9.96375 43.0524 10.6816 43.7688 11.2438C42.8815 11.9411 41.816 12.3747 40.694 12.495C39.572 12.6154 38.4388 12.4177 37.4239 11.9244C36.4089 11.4312 35.5532 10.6624 34.9546 9.70586C34.3559 8.74933 34.0385 7.64366 34.0385 6.51523C34.0385 5.38679 34.3559 4.28113 34.9546 3.32459C35.5532 2.36805 36.4089 1.59924 37.4239 1.10601C38.4388 0.612788 39.572 0.415055 40.694 0.53541C41.816 0.655766 42.8815 1.08936 43.7688 1.78662C43.0522 2.34905 42.473 3.06714 42.075 3.88653Z" fill="white"/>
<path d="M45.3985 6.5141C45.3985 8.45164 43.7279 10.0223 43.7279 10.0223C43.7279 10.0223 42.0573 8.45164 42.0573 6.5141C42.0573 4.57655 43.7279 3.00586 43.7279 3.00586C43.7279 3.00586 45.3985 4.57655 45.3985 6.5141Z" fill="white"/>
</svg>
