<svg width="53" height="10" viewBox="0 0 53 10" fill="none" xmlns="http://www.w3.org/2000/svg">
<path fill-rule="evenodd" clip-rule="evenodd" d="M4.90646 9.85123C7.79659 10.5192 10.7235 8.88906 11.4439 6.2105C12.1644 3.5318 10.4059 0.818401 7.51593 0.150599C4.62664 -0.517204 1.69976 1.11308 0.979625 3.79195C0.258821 6.47034 2.01751 9.18343 4.90646 9.85123ZM7.4041 3.02673C8.15137 3.26532 8.69788 3.62297 8.5905 4.28827C8.51279 4.7753 8.2215 5.01108 7.8348 5.09373C8.36579 5.34998 8.63601 5.74294 8.37861 6.42418C8.05917 7.27026 7.30026 7.34166 6.29104 7.16464L6.0461 8.07446L5.45426 7.93775L5.69598 7.04011C5.54259 7.00479 5.38582 6.96729 5.22432 6.92667L4.98175 7.82853L4.39058 7.69181L4.63551 6.78026C4.58026 6.76715 4.52467 6.75371 4.46868 6.74018C4.38458 6.71985 4.2996 6.69931 4.21358 6.67933L3.44338 6.50137L3.7372 5.8734C3.7372 5.8734 4.17329 5.9809 4.16739 5.97293C4.33495 6.01137 4.40929 5.91012 4.43862 5.84263L4.82566 4.40436C4.84017 4.4076 4.85439 4.4109 4.8681 4.41409C4.87493 4.41568 4.88164 4.41723 4.8882 4.41874C4.8646 4.40999 4.84319 4.40436 4.82667 4.40046L5.10278 3.37375C5.11003 3.25719 5.06671 3.11017 4.82701 3.0547C4.83628 3.04892 4.39716 2.95564 4.39716 2.95564L4.5546 2.36971L5.37081 2.55861L5.37014 2.56143C5.49286 2.58971 5.61928 2.61658 5.74807 2.64377L5.99064 1.74284L6.58215 1.87956L6.34447 2.76283C6.50326 2.79642 6.66307 2.83033 6.81866 2.86626L7.05466 1.98878L7.6465 2.12549L7.4041 3.02673ZM5.53205 6.29428C6.01497 6.41251 7.07043 6.67091 7.23823 6.0459C7.41017 5.40685 6.38655 5.19395 5.88707 5.09007C5.83126 5.07846 5.78199 5.06821 5.74167 5.05888L5.41666 6.26652C5.44978 6.27414 5.4886 6.28365 5.53205 6.29428ZM5.98743 4.52964C6.39006 4.62924 7.26831 4.84648 7.42129 4.27843C7.57752 3.69739 6.72393 3.52224 6.30705 3.4367C6.26016 3.42708 6.21879 3.41859 6.18501 3.41079L5.89034 4.50608C5.91818 4.51251 5.95084 4.52059 5.98743 4.52964Z" fill="white"/>
<path d="M16.6259 3.02578C17.0634 3.02578 17.4413 3.09843 17.7589 3.24108C18.078 3.38514 18.3413 3.57921 18.5525 3.82326C18.7609 4.06857 18.916 4.35529 19.0161 4.68388C19.1156 5.0134 19.1655 5.36762 19.1655 5.74683C19.1655 6.32932 19.0503 6.87963 18.8179 7.39837C18.5854 7.91789 18.27 8.3685 17.8688 8.75287C17.4679 9.13677 16.9946 9.43943 16.4488 9.66302C15.9038 9.88676 15.3113 9.99864 14.6751 9.99864C14.5928 9.99864 14.4482 9.99645 14.2439 9.99255C14.0396 9.98864 13.8048 9.9691 13.5418 9.93614C13.2771 9.90192 12.9973 9.8513 12.7018 9.78348C12.4065 9.71692 12.126 9.62364 11.8618 9.50521L14.2238 0.305978L16.3394 0.0020752L15.4937 3.26656C15.6747 3.19093 15.8571 3.13234 16.0392 3.08968C16.2214 3.04765 16.4169 3.02578 16.6259 3.02578ZM14.8514 8.44303C15.17 8.44303 15.4702 8.37038 15.7522 8.22773C16.0351 8.08492 16.2792 7.89211 16.4837 7.65196C16.6881 7.41071 16.85 7.139 16.968 6.83541C17.086 6.53182 17.1456 6.2151 17.1456 5.88558C17.1456 5.48074 17.0727 5.16496 16.9272 4.93669C16.7817 4.70935 16.5125 4.59497 16.1216 4.59497C15.9935 4.59497 15.8284 4.61763 15.6238 4.65809C15.4185 4.70106 15.2347 4.79028 15.07 4.9245L14.1695 8.39132C14.2238 8.40022 14.2719 8.40866 14.3128 8.41663C14.3529 8.42523 14.3973 8.43132 14.4414 8.43554C14.4881 8.44038 14.5416 8.44288 14.6061 8.44288C14.6707 8.44288 14.7514 8.44303 14.8514 8.44303Z" fill="white"/>
<path d="M21.3597 9.82258H19.3391L21.0455 3.16691H23.08L21.3597 9.82258ZM22.343 2.35598C22.061 2.35598 21.8052 2.27817 21.5783 2.12224C21.3496 1.96724 21.2363 1.72865 21.2363 1.40709C21.2363 1.23022 21.2751 1.06428 21.352 0.907723C21.43 0.751475 21.532 0.616948 21.6598 0.502575C21.7874 0.389139 21.9352 0.298514 22.1031 0.230234C22.272 0.163047 22.4517 0.129456 22.6432 0.129456C22.9251 0.129456 23.1794 0.207267 23.4072 0.363202C23.6341 0.519919 23.7482 0.758508 23.7482 1.07835C23.7482 1.25584 23.7096 1.4224 23.632 1.57865C23.555 1.7349 23.453 1.86943 23.3252 1.9838C23.1986 2.09739 23.0495 2.1877 22.8819 2.25536C22.7128 2.32364 22.5338 2.35598 22.343 2.35598Z" fill="white"/>
<path d="M24.8508 1.50861L26.9672 1.20471L26.4475 3.16656H28.7141L28.3048 4.70997H26.0519L25.4517 7.03806C25.3965 7.23212 25.3651 7.41336 25.3563 7.5818C25.3464 7.75102 25.3695 7.89633 25.4241 8.01867C25.4784 8.14133 25.576 8.23585 25.7176 8.30273C25.8585 8.3707 26.0603 8.40491 26.3249 8.40491C26.5429 8.40491 26.7553 8.38569 26.9606 8.34757C27.1648 8.31007 27.3716 8.25788 27.581 8.1896L27.7317 9.63271C27.4586 9.72552 27.1629 9.80536 26.8443 9.87255C26.5252 9.94067 26.1474 9.97348 25.7108 9.97348C25.0831 9.97348 24.5964 9.88708 24.2497 9.71505C23.9034 9.54177 23.6587 9.30506 23.5122 9.00537C23.3677 8.70679 23.3032 8.36257 23.3212 7.97476C23.3399 7.58602 23.4031 7.17743 23.5122 6.74713L24.8508 1.50861Z" fill="white"/>
<path d="M28.6251 7.16481C28.6251 6.59154 28.7253 6.05093 28.9254 5.54484C29.1251 5.03828 29.4129 4.59532 29.7862 4.21517C30.1583 3.8369 30.6116 3.53721 31.1451 3.31721C31.6761 3.09847 32.2706 2.98816 32.9259 2.98816C33.336 2.98816 33.7023 3.0241 34.0246 3.09613C34.3482 3.16878 34.641 3.26269 34.9059 3.3805L34.209 4.84923C34.0269 4.78079 33.838 4.72048 33.6426 4.66579C33.4471 4.61001 33.2084 4.58314 32.926 4.58314C32.2516 4.58314 31.7184 4.7986 31.3216 5.22812C30.9263 5.65796 30.7272 6.23655 30.7272 6.96232C30.7272 7.39247 30.8273 7.74027 31.0283 8.00636C31.2282 8.27245 31.5975 8.40479 32.1337 8.40479C32.3984 8.40479 32.6538 8.37917 32.8984 8.32917C33.1448 8.27855 33.3624 8.2148 33.5541 8.13948L33.705 9.64509C33.4494 9.73696 33.1676 9.81993 32.8584 9.89258C32.5486 9.96274 32.1798 9.99914 31.7521 9.99914C31.1876 9.99914 30.7097 9.92259 30.3188 9.77181C29.9277 9.61868 29.6045 9.4154 29.35 9.15791C29.0941 8.89979 28.9104 8.59839 28.7967 8.25245C28.6831 7.90684 28.6251 7.54371 28.6251 7.16481Z" fill="white"/>
<path d="M37.6014 9.99914C37.1191 9.99914 36.7002 9.93102 36.3449 9.79618C35.9905 9.66134 35.6971 9.47212 35.4649 9.22681C35.2325 8.98275 35.0585 8.69354 34.9393 8.36026C34.8202 8.02714 34.7628 7.65824 34.7628 7.25403C34.7628 6.74701 34.8507 6.24014 35.0282 5.73468C35.2048 5.22812 35.467 4.77298 35.8139 4.36845C36.1581 3.9633 36.5827 3.63205 37.0827 3.37378C37.5822 3.11722 38.1567 2.98816 38.8019 2.98816C39.2755 2.98816 39.6922 3.05644 40.0524 3.19128C40.4109 3.32581 40.7063 3.51659 40.9398 3.76065C41.1707 4.00596 41.3462 4.29392 41.4642 4.62767C41.583 4.96016 41.6417 5.33 41.6417 5.73452C41.6417 6.23998 41.555 6.74685 41.3831 7.25387C41.211 7.7584 40.9556 8.21464 40.6185 8.6201C40.282 9.02463 39.8612 9.35572 39.3559 9.6129C38.8512 9.87009 38.2659 9.99914 37.6014 9.99914ZM38.6113 4.58329C38.3118 4.58329 38.0469 4.66391 37.8202 4.82313C37.5926 4.98422 37.4015 5.18672 37.2474 5.43093C37.0916 5.67624 36.9762 5.94374 36.8981 6.23452C36.8207 6.52592 36.7828 6.80138 36.7828 7.0631C36.7828 7.48544 36.8563 7.81434 37.0008 8.05105C37.1473 8.28652 37.4104 8.40495 37.7929 8.40495C38.0935 8.40495 38.3569 8.32495 38.585 8.16402C38.8112 8.00418 39.0026 7.80152 39.1578 7.55684C39.3126 7.31278 39.429 7.0445 39.5071 6.75326C39.5834 6.4628 39.6224 6.18577 39.6224 5.92452C39.6224 5.50328 39.5492 5.17359 39.4034 4.93719C39.2578 4.70173 38.9934 4.58329 38.6113 4.58329Z" fill="white"/>
<path d="M43.8435 9.82258H41.8212L43.5276 3.16691H45.5631L43.8435 9.82258ZM44.8252 2.35598C44.5434 2.35598 44.2878 2.27817 44.0613 2.12224C43.8337 1.96724 43.7194 1.72865 43.7194 1.40709C43.7194 1.23022 43.7587 1.06428 43.8357 0.907723C43.9128 0.751475 44.0154 0.616948 44.1432 0.502575C44.2701 0.389139 44.4193 0.298514 44.5869 0.230234C44.7548 0.163047 44.9345 0.129456 45.1253 0.129456C45.4078 0.129456 45.663 0.207267 45.8903 0.363202C46.1177 0.519919 46.2325 0.758508 46.2325 1.07835C46.2325 1.25584 46.1917 1.4224 46.1153 1.57865C46.039 1.7349 45.9363 1.86943 45.809 1.9838C45.6809 2.09739 45.5336 2.1877 45.3657 2.25536C45.1964 2.32364 45.0171 2.35598 44.8252 2.35598Z" fill="white"/>
<path d="M47.0192 3.46952C47.1726 3.42795 47.3439 3.37796 47.5301 3.32358C47.7171 3.26921 47.9259 3.21858 48.1592 3.17296C48.39 3.12593 48.6504 3.0878 48.9368 3.05827C49.2232 3.02812 49.5496 3.01343 49.9122 3.01343C50.9779 3.01343 51.7125 3.30108 52.1181 3.87467C52.5233 4.44825 52.5935 5.23324 52.3305 6.22822L51.401 9.82192H49.367L50.2679 6.30385C50.3228 6.08416 50.366 5.87182 50.3978 5.66432C50.43 5.4587 50.4282 5.27746 50.3906 5.12059C50.3547 4.96559 50.2701 4.83871 50.1387 4.74043C50.0054 4.64372 49.804 4.59512 49.5307 4.59512C49.2672 4.59512 48.9992 4.62137 48.7256 4.672L47.4012 9.82176H45.3664L47.0192 3.46952Z" fill="white"/>
</svg>
