<svg width="80" height="13" viewBox="0 0 80 13" fill="none" xmlns="http://www.w3.org/2000/svg">
<path d="M20.5811 9.88872L18.5361 7.25635C19.8491 6.94896 20.767 6.09184 20.767 4.67123V4.64697C20.767 3.93439 20.5065 3.30043 20.0663 2.85984C19.5039 2.29741 18.6231 1.96088 17.5242 1.96088H14.2801C13.9614 1.96088 13.6868 2.23277 13.6868 2.56655V10.3057C13.6868 10.6396 13.9614 10.9114 14.2801 10.9114C14.6126 10.9114 14.8854 10.6388 14.8854 10.3057V7.48141H17.2094L19.6158 10.6076C19.7479 10.7838 19.9263 10.9114 20.1614 10.9114C20.4648 10.9114 20.767 10.6368 20.767 10.3175C20.767 10.1556 20.6981 10.0206 20.5811 9.88872ZM19.556 4.68406L19.5561 4.70874H19.556C19.556 5.76252 18.6669 6.38165 17.4372 6.38165H14.8854V3.08533H17.4496C18.7714 3.08533 19.556 3.67796 19.556 4.68406Z" fill="white"/>
<path d="M22.5141 10.2439C22.5141 10.5772 22.7888 10.8492 23.1075 10.8492H28.5556C28.8646 10.8492 29.1115 10.6019 29.1115 10.293C29.1115 9.9844 28.8647 9.73709 28.5556 9.73709H23.7128V6.92384H27.9366C28.2457 6.92384 28.4929 6.67696 28.4929 6.36798C28.4929 6.07436 28.2457 5.81169 27.9366 5.81169H23.7128V3.07346H28.4939C28.8023 3.07346 29.0502 2.82615 29.0502 2.51717C29.0502 2.20819 28.8023 1.96088 28.4939 1.96088H23.1075C22.7889 1.96088 22.5141 2.23277 22.5141 2.56665V10.2439Z" fill="white"/>
<path d="M34.1512 10.9485L34.2161 10.9483C34.5405 10.9427 34.7426 10.76 34.8708 10.4745L38.2284 2.7188C38.2583 2.64421 38.2735 2.56961 38.2735 2.48007C38.2735 2.17501 38.0156 1.89899 37.6801 1.89899C37.4142 1.89899 37.2023 2.09968 37.0985 2.3064C37.0973 2.30874 37.0963 2.31107 37.0952 2.3135L34.1887 9.27562L31.2937 2.33819C31.1905 2.08707 30.98 1.89899 30.6845 1.89899C30.3501 1.89899 30.0783 2.189 30.0783 2.49194C30.0783 2.59779 30.0944 2.67303 30.1392 2.76309L33.4799 10.4721C33.5964 10.7625 33.8169 10.9485 34.1512 10.9485Z" fill="white"/>
<path d="M39.8595 2.50466V10.3056C39.8595 10.6394 40.1341 10.9113 40.4529 10.9113C40.7854 10.9113 41.0581 10.6387 41.0581 10.3056V2.50466C41.0581 2.17152 40.7854 1.89899 40.4529 1.89899C40.1341 1.89899 39.8595 2.17077 39.8595 2.50466Z" fill="white"/>
<path d="M49.2459 1.96109L49.2315 1.96088H43.8448C43.5266 1.96088 43.2518 2.23277 43.2518 2.56665V10.2439C43.2518 10.5772 43.5264 10.8492 43.8448 10.8492C43.8446 10.8492 49.2932 10.8492 49.2932 10.8492C49.6018 10.8492 49.8491 10.6019 49.8491 10.293C49.8491 9.9844 49.6018 9.73709 49.2932 9.73709H44.4504V6.92384H48.6738C48.9834 6.92384 49.2301 6.67696 49.2301 6.36798C49.2301 6.07436 48.9834 5.81169 48.6738 5.81169H44.4504V3.07346H49.2315C49.5399 3.07346 49.7877 2.82615 49.7877 2.51717C49.7877 2.21306 49.5475 1.96861 49.2459 1.96109Z" fill="white"/>
<path d="M59.865 10.9606H59.9667C60.2556 10.9544 60.4632 10.7565 60.5649 10.4655C60.5644 10.4665 63.3385 2.76499 63.3385 2.76499C63.3388 2.76393 63.3391 2.76297 63.3395 2.76191C63.3672 2.67715 63.4068 2.57701 63.4068 2.49225C63.4068 2.18867 63.1198 1.89929 62.8011 1.89929C62.5158 1.89929 62.3162 2.08811 62.2257 2.35831C62.2261 2.35715 59.9312 8.95794 59.9312 8.95794L57.7671 2.35852C57.6774 2.08896 57.4789 1.89929 57.1799 1.89929V1.90025L57.1176 1.89929C56.8032 1.89929 56.6195 2.08896 56.5299 2.35852L54.3659 8.95773L52.0833 2.38141C51.9948 2.11619 51.7679 1.89929 51.4713 1.89929C51.1389 1.89929 50.8536 2.18729 50.8536 2.50464C50.8536 2.59079 50.8797 2.67683 50.9083 2.76244L53.6827 10.4658C53.7848 10.7707 53.9926 10.9549 54.2809 10.9606H54.3826C54.671 10.9544 54.8793 10.7564 54.9803 10.4653L57.1179 4.11301L59.2673 10.4655C59.3689 10.7565 59.5771 10.9544 59.865 10.9606Z" fill="white"/>
<path d="M69.6605 8.48526V8.50994C69.6605 9.30984 68.929 9.87333 67.8394 9.87333C66.7685 9.87333 65.9735 9.54878 65.1793 8.87593L65.1771 8.87392C65.0986 8.7972 64.96 8.73373 64.8058 8.73373C64.4856 8.73373 64.2243 8.99175 64.2243 9.32711C64.2243 9.52589 64.318 9.69373 64.4547 9.78751C65.44 10.5694 66.5139 10.9731 67.8023 10.9731C69.5928 10.9731 70.8715 9.95673 70.8715 8.41108V8.38587C70.8715 7.01262 69.9638 6.26337 67.9617 5.82682C67.9616 5.82682 67.9615 5.82671 67.9613 5.82671C66.1425 5.43678 65.6959 5.03021 65.6959 4.25034V4.22565C65.6959 3.49749 66.379 2.93686 67.4304 2.93686C68.2121 2.93686 68.8974 3.15408 69.607 3.67106C69.6072 3.67127 69.6074 3.67138 69.6076 3.67159C69.7133 3.74745 69.8196 3.77882 69.9568 3.77882C70.2773 3.77882 70.5373 3.51943 70.5373 3.19784C70.5373 2.97161 70.4038 2.80451 70.2827 2.71349C70.2821 2.71307 70.2814 2.71254 70.2808 2.71212C69.4698 2.12923 68.6214 1.8371 67.4552 1.8371C65.7392 1.8371 64.4967 2.89331 64.4967 4.31254L64.6071 4.42295C64.607 4.42295 64.4967 4.31328 64.4967 4.31328V4.33628L64.6071 4.44722L64.4967 4.33691C64.4967 5.81177 65.4294 6.49776 67.494 6.94629C67.4942 6.94629 67.4945 6.94639 67.4947 6.94639C69.227 7.31206 69.6605 7.71906 69.6605 8.48526Z" fill="white"/>
<path d="M72.2362 9.6931L72.2257 9.69299C71.9929 9.69299 71.827 9.85977 71.827 10.0846L71.8932 10.1508L71.827 10.0846V10.2232C71.827 10.4477 71.9932 10.6219 72.2257 10.6219C72.45 10.6219 72.6173 10.4482 72.6173 10.2232C72.6173 10.2599 72.5876 10.2894 72.5511 10.2894C72.5511 10.2894 72.6173 10.282 72.6173 10.2201V10.0846C72.6173 9.86285 72.4556 9.69819 72.2362 9.6931ZM71.899 10.2885C71.8954 10.2892 71.8932 10.2894 71.8932 10.2894C71.8952 10.2894 71.8972 10.2894 71.8992 10.2892L71.899 10.2885Z" fill="white"/>
<path d="M73.6492 7.17602V10.2855C73.6492 10.4752 73.796 10.622 73.985 10.622C74.1758 10.622 74.3149 10.4756 74.3149 10.2855V7.17602C74.3149 6.98582 74.1681 6.8396 73.9785 6.8396C73.7972 6.8396 73.6492 6.99473 73.6492 7.17602ZM73.6006 5.90853H73.6005C73.6005 6.11186 73.767 6.25862 73.9785 6.25862C74.1981 6.25862 74.363 6.11144 74.363 5.90853V5.81888C74.363 5.60728 74.1981 5.46826 73.9785 5.46826C73.767 5.46826 73.6005 5.60686 73.6005 5.81888L73.6006 5.90853Z" fill="white"/>
<path fill-rule="evenodd" clip-rule="evenodd" d="M79.066 8.73584L79.0661 8.72079C79.0661 7.67327 78.2487 6.79803 77.1372 6.79803C76.0185 6.79803 75.2007 7.68768 75.2007 8.73446L75.2144 8.74823L75.2007 8.73488V8.74823C75.2007 9.79533 76.0114 10.6705 77.1231 10.6705C78.2416 10.6705 79.0654 9.78198 79.066 8.73584ZM78.3866 8.74823V8.73446C78.3866 8.00312 77.8414 7.40116 77.1231 7.40116C76.3854 7.40116 75.8802 8.00291 75.8802 8.72079V8.73446C75.8802 9.46569 76.419 10.0599 77.1372 10.0599C77.8743 10.0599 78.3866 9.46601 78.3866 8.74823Z" fill="white"/>
<path fill-rule="evenodd" clip-rule="evenodd" d="M10.0819 2.64587L9.54955 2.91289C10.5873 3.75093 11.0947 4.83342 11.189 6.1433C11.1101 8.67162 9.91723 10.2966 7.86807 10.9935C5.5006 11.7069 4.00041 11.1297 2.54876 9.65059L2.45731 10.2192L3.04751 10.8342C5.10049 12.9736 8.50425 13.0439 10.6437 10.9909C12.7831 8.93779 12.8534 5.53414 10.8003 3.39459L10.0819 2.64587Z" fill="#FEEF7C"/>
<path fill-rule="evenodd" clip-rule="evenodd" d="M2.16529 9.90235L2.52195 9.59083C1.04009 7.49091 0.978002 4.41658 3.00598 2.72408C4.50923 1.46951 7.49201 0.819228 9.87835 2.92031L10.0565 2.60699L9.47496 2.0009C7.42187 -0.138546 4.01821 -0.208798 1.87866 1.84429C-0.26078 3.89727 -0.330925 7.30103 1.72205 9.44047L2.16529 9.90235Z" fill="#5CD3CB"/>
<path d="M0.883171 6.43281C0.883171 9.40542 3.29334 11.8156 6.26595 11.8156C9.23909 11.8156 11.6492 9.40542 11.6492 6.43281C11.6492 3.45967 9.23909 1.0495 6.26595 1.0495C3.29334 1.0495 0.883171 3.45967 0.883171 6.43281ZM4.62982 7.40637C4.6864 7.2273 4.62346 7.03212 4.473 6.9197C4.07459 6.62216 3.2891 6.03557 2.76132 5.64139C2.68513 5.58449 2.65398 5.48521 2.68397 5.39493C2.71395 5.30465 2.7983 5.24383 2.89345 5.24383H4.93912C5.12953 5.24383 5.29843 5.12177 5.3583 4.9411C5.51957 4.454 5.8401 3.48595 6.05265 2.84425C6.08254 2.75408 6.16677 2.69305 6.26182 2.69294C6.35687 2.69284 6.44142 2.75355 6.47152 2.84362C6.6863 3.48584 7.01064 4.45549 7.1735 4.94237C7.23379 5.1224 7.40238 5.24383 7.59226 5.24383C8.07618 5.24383 9.00842 5.24383 9.64312 5.24383C9.73795 5.24383 9.8223 5.30444 9.85239 5.39451C9.88248 5.48457 9.85175 5.58375 9.77589 5.64086C9.24969 6.03726 8.46378 6.62916 8.06622 6.9286C7.9166 7.04124 7.8544 7.2361 7.91088 7.41453C8.06463 7.90004 8.37297 8.87371 8.58129 9.53141C8.61032 9.62327 8.57642 9.72351 8.49748 9.77883C8.41854 9.83414 8.31289 9.83191 8.23639 9.77321C7.70775 9.36738 6.93541 8.77453 6.53096 8.46418C6.37191 8.34211 6.15067 8.34243 5.99205 8.46513C5.59152 8.77475 4.82966 9.36388 4.30548 9.76918C4.22918 9.8282 4.12333 9.83085 4.04418 9.77554C3.96503 9.72034 3.93091 9.6201 3.95994 9.52812C4.16826 8.86852 4.47618 7.89316 4.62982 7.40637Z" fill="white"/>
</svg>
