<svg width="60" height="16" viewBox="0 0 60 16" fill="none" xmlns="http://www.w3.org/2000/svg">
<g clip-path="url(#clip0_1130_4227)">
<path d="M15.7856 5.7262L21.849 5.7262L21.849 6.87691L19.4616 6.87691L19.4616 13.3637L18.153 13.3637L18.153 6.87691L15.7757 6.87691L15.7856 5.7262ZM21.5893 7.83414L22.708 7.83414L22.708 8.90338L22.728 8.90338C22.768 8.75063 22.8379 8.60807 22.9378 8.4655C23.0377 8.32294 23.1575 8.19055 23.3074 8.07854C23.4472 7.95634 23.607 7.86469 23.7868 7.7934C23.9567 7.72212 24.1365 7.68139 24.3163 7.68139C24.4561 7.68139 24.556 7.69157 24.6059 7.69157C24.6559 7.70175 24.7158 7.71194 24.7658 7.71194L24.7658 8.88302C24.6858 8.86265 24.5959 8.85247 24.506 8.84228C24.4161 8.8321 24.3362 8.82192 24.2463 8.82192C24.0466 8.82192 23.8568 8.86265 23.677 8.94411C23.4972 9.02558 23.3473 9.14778 23.2075 9.30053C23.0776 9.46346 22.9677 9.65695 22.8878 9.89116C22.8079 10.1254 22.768 10.4003 22.768 10.7058L22.768 13.3331L21.5693 13.3331L21.5893 7.83414ZM30.2597 13.3637L29.081 13.3637L29.081 12.5897L29.061 12.5897C28.9112 12.8749 28.6914 13.0887 28.4018 13.2618C28.1121 13.4349 27.8124 13.5164 27.5127 13.5164C26.8035 13.5164 26.2841 13.3433 25.9644 12.9767C25.6448 12.6203 25.485 12.0704 25.485 11.3474L25.485 7.83414L26.6836 7.83414L26.6836 11.2252C26.6836 11.714 26.7736 12.0602 26.9633 12.2537C27.1431 12.4574 27.4029 12.5592 27.7325 12.5592C27.9822 12.5592 28.192 12.5185 28.3618 12.437C28.5316 12.3555 28.6715 12.2537 28.7714 12.1213C28.8812 11.9889 28.9512 11.826 29.0011 11.6427C29.051 11.4594 29.071 11.2557 29.071 11.0419L29.071 7.83414L30.2697 7.83414L30.2697 13.3637L30.2597 13.3637ZM32.2975 11.5918C32.3374 11.9482 32.4673 12.1926 32.697 12.3453C32.9268 12.4879 33.2065 12.5592 33.5261 12.5592C33.636 12.5592 33.7659 12.549 33.9057 12.5286C34.0455 12.5083 34.1854 12.4777 34.3053 12.4268C34.4351 12.3759 34.535 12.3046 34.6149 12.2028C34.6948 12.1009 34.7348 11.9787 34.7248 11.826C34.7148 11.6732 34.6649 11.5409 34.555 11.439C34.4451 11.3372 34.3153 11.2659 34.1554 11.1946C33.9956 11.1335 33.8058 11.0826 33.596 11.0419C33.3863 11.0011 33.1765 10.9502 32.9567 10.8993C32.737 10.8484 32.5172 10.7873 32.3075 10.716C32.0977 10.6447 31.9179 10.5531 31.7481 10.4207C31.5883 10.2985 31.4484 10.1457 31.3585 9.95226C31.2586 9.75878 31.2087 9.53475 31.2087 9.24961C31.2087 8.94412 31.2786 8.69972 31.4284 8.49605C31.5683 8.29239 31.7581 8.12945 31.9778 8.00725C32.1976 7.88506 32.4473 7.7934 32.717 7.74249C32.9867 7.69157 33.2464 7.6712 33.4862 7.6712C33.7659 7.6712 34.0356 7.70176 34.2853 7.76286C34.535 7.82396 34.7747 7.91561 34.9745 8.05817C35.1843 8.19055 35.3541 8.37385 35.484 8.5877C35.6238 8.80155 35.7037 9.06632 35.7437 9.37182L34.4951 9.37182C34.4351 9.0765 34.3053 8.88302 34.1055 8.78119C33.8957 8.67935 33.666 8.62844 33.3963 8.62844C33.3164 8.62844 33.2065 8.63862 33.0966 8.6488C32.9767 8.66917 32.8768 8.68954 32.767 8.73027C32.6671 8.771 32.5772 8.8321 32.5072 8.90338C32.4373 8.97467 32.3974 9.0765 32.3974 9.1987C32.3974 9.35145 32.4473 9.46346 32.5472 9.55511C32.6471 9.64676 32.7769 9.71805 32.9468 9.78933C33.1066 9.85043 33.2964 9.90135 33.5061 9.94208C33.7159 9.98281 33.9357 10.0337 34.1554 10.0846C34.3752 10.1356 34.585 10.1967 34.7947 10.2679C35.0045 10.3392 35.1943 10.4309 35.3541 10.5633C35.5139 10.6855 35.6538 10.8382 35.7537 11.0215C35.8536 11.2048 35.9035 11.439 35.9035 11.7038C35.9035 12.0297 35.8336 12.3046 35.6837 12.5388C35.5339 12.7629 35.3441 12.9563 35.1144 13.0989C34.8846 13.2415 34.6149 13.3433 34.3352 13.4146C34.0455 13.4757 33.7659 13.5164 33.4862 13.5164C33.1465 13.5164 32.8269 13.4757 32.5372 13.3942C32.2475 13.3127 31.9878 13.1905 31.778 13.0378C31.5683 12.8749 31.3985 12.6814 31.2786 12.437C31.1587 12.2028 31.0888 11.9176 31.0788 11.5816L32.2875 11.5816L32.2875 11.5918L32.2975 11.5918ZM36.2431 7.83414L37.1521 7.83414L37.1521 6.16408L38.3508 6.16408L38.3508 7.82395L39.4296 7.82395L39.4296 8.73027L38.3508 8.73027L38.3508 11.6834C38.3508 11.8158 38.3608 11.9176 38.3708 12.0195C38.3808 12.1111 38.4107 12.1926 38.4407 12.2537C38.4807 12.3148 38.5406 12.3657 38.6105 12.3963C38.6904 12.4268 38.7903 12.4472 38.9302 12.4472C39.0101 12.4472 39.1 12.4472 39.1799 12.437C39.2598 12.4268 39.3497 12.4166 39.4296 12.3963L39.4296 13.3433C39.2998 13.3637 39.1699 13.3738 39.04 13.384C38.9102 13.4044 38.7903 13.4044 38.6505 13.4044C38.3308 13.4044 38.0811 13.3739 37.8913 13.3128C37.7015 13.2517 37.5517 13.16 37.4418 13.048C37.3319 12.9258 37.262 12.7832 37.222 12.6101C37.1821 12.437 37.1621 12.2231 37.1521 11.9991L37.1521 8.74045L36.2431 8.74045L36.2431 7.81377L36.2431 7.83414ZM40.2687 7.83414L41.3975 7.83414L41.3975 8.5877L41.4174 8.5877C41.5872 8.26184 41.817 8.0378 42.1167 7.89524C42.4163 7.75267 42.736 7.68139 43.0956 7.68139C43.5251 7.68139 43.8947 7.75267 44.2144 7.91561C44.534 8.06836 44.7937 8.27202 45.0035 8.54697C45.2133 8.81173 45.3731 9.12742 45.473 9.48383C45.5729 9.84025 45.6328 10.2272 45.6328 10.6244C45.6328 11.0011 45.5828 11.3576 45.4929 11.7038C45.3931 12.05 45.2532 12.3657 45.0634 12.6305C44.8736 12.8952 44.6339 13.1091 44.3342 13.272C44.0346 13.4349 43.6949 13.5164 43.2954 13.5164C43.1256 13.5164 42.9458 13.4961 42.7759 13.4655C42.6061 13.435 42.4363 13.384 42.2765 13.3128C42.1167 13.2415 41.9668 13.1498 41.837 13.0378C41.6971 12.9258 41.5872 12.7934 41.4973 12.6508L41.4774 12.6508L41.4774 15.4105L40.2787 15.4105L40.2787 7.83414L40.2687 7.83414ZM44.4541 10.604C44.4541 10.3596 44.4241 10.1152 44.3542 9.88098C44.2943 9.64677 44.1944 9.4431 44.0645 9.2598C43.9347 9.0765 43.7748 8.93394 43.595 8.82192C43.4052 8.7099 43.1855 8.65899 42.9458 8.65899C42.4463 8.65899 42.0667 8.8321 41.807 9.18852C41.5573 9.54493 41.4274 10.0235 41.4274 10.6142C41.4274 10.8993 41.4574 11.1539 41.5273 11.3881C41.5972 11.6223 41.6871 11.826 41.827 11.9991C41.9568 12.1722 42.1167 12.3046 42.3065 12.4064C42.4962 12.5083 42.706 12.5592 42.9557 12.5592C43.2354 12.5592 43.4552 12.4981 43.645 12.3861C43.8348 12.2741 43.9846 12.1213 44.1145 11.9482C44.2343 11.7649 44.3242 11.5612 44.3742 11.327C44.4241 11.0826 44.4541 10.8484 44.4541 10.604ZM46.5618 5.7262L47.7605 5.7262L47.7605 6.87691L46.5618 6.87691L46.5618 5.7262ZM46.5618 7.83414L47.7605 7.83414L47.7604 13.3637L46.5618 13.3637L46.5618 7.83414ZM48.8293 5.7262L50.028 5.7262L50.028 13.3637L48.8293 13.3637L48.8293 5.7262ZM53.6839 13.5164C53.2544 13.5164 52.8648 13.4451 52.5252 13.2924C52.1856 13.1396 51.9059 12.9462 51.6662 12.6916C51.4364 12.437 51.2566 12.1213 51.1367 11.7649C51.0169 11.4085 50.9469 11.0113 50.9469 10.5938C50.9469 10.1763 51.0069 9.78933 51.1367 9.43292C51.2566 9.0765 51.4364 8.771 51.6662 8.50624C51.8959 8.25165 52.1856 8.04799 52.5252 7.90542C52.8648 7.76286 53.2544 7.68139 53.6839 7.68139C54.1135 7.68139 54.503 7.75267 54.8427 7.90542C55.1823 8.04799 55.462 8.25165 55.7017 8.50624C55.9315 8.76082 56.1113 9.0765 56.2311 9.43292C56.351 9.78933 56.4209 10.1763 56.4209 10.5938C56.4209 11.0215 56.361 11.4085 56.2311 11.7649C56.1013 12.1213 55.9315 12.4268 55.7017 12.6916C55.472 12.9462 55.1823 13.1498 54.8427 13.2924C54.503 13.435 54.1234 13.5164 53.6839 13.5164ZM53.6839 12.549C53.9436 12.549 54.1834 12.4879 54.3732 12.3759C54.573 12.2639 54.7228 12.1111 54.8526 11.9278C54.9825 11.7445 55.0724 11.5307 55.1323 11.3066C55.1923 11.0724 55.2222 10.8382 55.2222 10.5938C55.2222 10.3596 55.1923 10.1254 55.1323 9.89117C55.0724 9.65695 54.9825 9.45328 54.8526 9.26998C54.7228 9.08669 54.563 8.94412 54.3732 8.8321C54.1734 8.72009 53.9436 8.65899 53.6839 8.65899C53.4242 8.65899 53.1845 8.72009 52.9947 8.8321C52.7949 8.94412 52.6451 9.09687 52.5152 9.26998C52.3854 9.45328 52.2955 9.65695 52.2355 9.89117C52.1756 10.1254 52.1456 10.3596 52.1456 10.5938C52.1456 10.8382 52.1756 11.0724 52.2355 11.3066C52.2955 11.5409 52.3854 11.7445 52.5152 11.9278C52.6451 12.1111 52.8049 12.2639 52.9947 12.3759C53.1945 12.4981 53.4242 12.549 53.6839 12.549ZM56.7805 7.83414L57.6895 7.83414L57.6895 6.16408L58.8882 6.16408L58.8882 7.82396L59.967 7.82396L59.967 8.73027L58.8882 8.73027L58.8882 11.6834C58.8882 11.8158 58.8982 11.9176 58.9082 12.0195C58.9182 12.1111 58.9481 12.1926 58.9781 12.2537C59.0181 12.3148 59.078 12.3657 59.1479 12.3963C59.2278 12.4268 59.3277 12.4472 59.4676 12.4472C59.5475 12.4472 59.6374 12.4472 59.7173 12.437C59.7972 12.4268 59.8871 12.4166 59.967 12.3963L59.967 13.3433C59.8372 13.3637 59.7073 13.3739 59.5774 13.384C59.4476 13.4044 59.3277 13.4044 59.1879 13.4044C58.8682 13.4044 58.6185 13.3739 58.4287 13.3128C58.2389 13.2517 58.0891 13.16 57.9792 13.048C57.8693 12.9258 57.7994 12.7832 57.7594 12.6101C57.7195 12.437 57.6995 12.2231 57.6895 11.9991L57.6895 8.74045L56.7805 8.74045L56.7805 7.81377L56.7805 7.83414Z" fill="white"/>
<path d="M14.3872 5.7262L8.90322 5.7262L7.21508 0.410523L5.51695 5.7262L0.0329814 5.71602L4.4681 9.00522L2.76997 14.3209L7.20509 11.0317L11.6402 14.3209L9.95207 9.00522L14.3872 5.7262Z" fill="#00B67A"/>
<path d="M10.3316 10.2069L9.95206 9.00525L7.21508 11.0317L10.3316 10.2069Z" fill="#005128"/>
</g>
<defs>
<clipPath id="clip0_1130_4227">
<rect width="60" height="15" fill="white" transform="translate(60 15.4105) rotate(-180)"/>
</clipPath>
</defs>
</svg>
